<svg width="115" height="115" viewBox="0 0 115 115" fill="none" xmlns="http://www.w3.org/2000/svg">
<g filter="url(#filter0_d_201_85)">
<path d="M25.5606 49.744C23.0212 46.5309 25.0375 41.7808 29.1128 41.3755C32.1358 41.0749 34.2528 38.2499 33.6924 35.2641C32.937 31.239 36.9299 27.97 40.7267 29.505C43.5431 30.6437 46.7305 29.1261 47.6219 26.2219C48.8235 22.3068 53.8783 21.2678 56.5268 24.3915C58.4914 26.7086 62.019 26.846 64.1579 24.6887C67.0414 21.7805 72 23.2096 72.8935 27.2063C73.5563 30.1711 76.6159 31.9321 79.5123 31.0159C83.4171 29.7808 87.1436 33.3506 86.0773 37.3047C85.2864 40.2379 87.1772 43.219 90.1676 43.7539C94.1991 44.4749 95.8398 49.3675 93.0581 52.3733C90.9947 54.6029 91.2835 58.1212 93.6828 59.9845C96.9174 62.4965 96.0965 67.5912 92.2366 68.9599C89.3733 69.9752 87.994 73.2248 89.2526 75.9897C90.9493 79.7171 87.8548 83.8467 83.8009 83.2648C80.7938 82.8332 78.0623 85.0696 77.8918 88.1027C77.662 92.1916 73.0028 94.4101 69.6837 92.011C67.2216 90.2314 63.7637 90.9422 62.2032 93.5486C60.0995 97.0624 54.943 96.8615 53.119 93.1948C51.7659 90.4748 48.3738 89.4972 45.7808 91.0799C42.2851 93.2135 37.8126 90.6393 37.9015 86.5449C37.9675 83.5077 35.4182 81.0657 32.3867 81.2621C28.2998 81.5268 25.5359 77.169 27.5175 73.5849C28.9873 70.9262 27.865 67.5792 25.0894 66.3442C21.3477 64.6794 20.9255 59.5363 24.3457 57.2836C26.8827 55.6126 27.4443 52.1273 25.5606 49.744Z" fill="url(#paint0_linear_201_85)"/>
</g>
<path d="M47.94 57.4255L43.7933 45.0209H45.6186L49.4286 56.4686H48.5071L52.4588 45.0209H54.0892L57.9523 56.4686H57.0663L60.9294 45.0209H62.6129L58.4662 57.4255H56.6055L52.9905 46.8107H53.4689L49.8362 57.4255H47.94ZM66.0388 50.3726H72.4183V51.8789H66.0388V50.3726ZM66.1983 55.8838H73.4284V57.4255H64.4262V45.0209H73.1803V46.5627H66.1983V55.8838ZM44.4776 60.0209H46.2497V72.4255H44.4776V60.0209ZM37.3538 72.4255H35.5817V60.0209H37.3538V72.4255ZM44.6371 66.8966H37.1766V65.3549H44.6371V66.8966ZM47.7298 72.4255L53.3473 60.0209H55.1017L60.7369 72.4255H58.8762L53.8612 61.0133H54.5701L49.5551 72.4255H47.7298ZM50.1221 69.3244L50.6006 67.9067H57.5826L58.0965 69.3244H50.1221ZM65.1549 72.4255L59.6969 60.0209H61.6108L66.6258 71.4686H65.5271L70.5775 60.0209H72.3496L66.9093 72.4255H65.1549ZM75.1896 65.3726H81.5692V66.8789H75.1896V65.3726ZM75.3491 70.8838H82.5792V72.4255H73.5771V60.0209H82.3312V61.5627H75.3491V70.8838Z" fill="white"/>
<defs>
<filter id="filter0_d_201_85" x="0.970526" y="0.961549" width="105.793" height="105.629" filterUnits="userSpaceOnUse" color-interpolation-filters="sRGB">
<feFlood flood-opacity="0" result="BackgroundImageFix"/>
<feColorMatrix in="SourceAlpha" type="matrix" values="0 0 0 0 0 0 0 0 0 0 0 0 0 0 0 0 0 0 127 0" result="hardAlpha"/>
<feOffset dx="-4.98399" dy="-5.53777"/>
<feGaussianBlur stdDeviation="8.02976"/>
<feComposite in2="hardAlpha" operator="out"/>
<feColorMatrix type="matrix" values="0 0 0 0 0.00517701 0 0 0 0 0.0123699 0 0 0 0 0.00870292 0 0 0 0.37 0"/>
<feBlend mode="normal" in2="BackgroundImageFix" result="effect1_dropShadow_201_85"/>
<feBlend mode="normal" in="SourceGraphic" in2="effect1_dropShadow_201_85" result="shape"/>
</filter>
<linearGradient id="paint0_linear_201_85" x1="87.8011" y1="24.8293" x2="65.3464" y2="85.8548" gradientUnits="userSpaceOnUse">
<stop stop-color="#237249"/>
<stop offset="1" stop-color="#35C66B"/>
</linearGradient>
</defs>
</svg>
